<svg width="127" height="42" viewBox="0 0 127 42" fill="none" xmlns="http://www.w3.org/2000/svg">
<g clip-path="url(#clip0_6565_16005)">
<path d="M9.84819 31.0422V28.8009C8.60086 27.9494 7.59754 26.5886 6.98123 24.9123H9.84819V23.6731H6.61524C6.46169 23.0112 6.35862 22.3164 6.32497 21.5947H9.84819V20.3556H6.30814V18.2752H5.04399V17.036H2.20859C3.67467 14.1886 6.67624 12.2071 10.1511 12.1267C10.2373 11.9226 10.3004 11.7143 10.3404 11.5102C10.3467 11.4772 10.353 11.4484 10.3572 11.4174L10.4414 10.8999C10.4182 10.8999 10.3951 10.8999 10.374 10.8999H10.3383C4.63803 10.9143 0 15.436 0 20.9741C0 26.5123 4.312 30.7556 9.81033 31.0401M1.68694 18.2752H5.04399V20.3556H1.27677C1.32936 19.636 1.46818 18.937 1.68904 18.2752H1.68694ZM1.27467 21.5947H5.05661C5.08816 22.3123 5.17861 23.0071 5.31743 23.6731H1.68484C1.46608 23.0092 1.32725 22.3143 1.27467 21.5947ZM2.20228 24.9123H5.64977C6.31866 26.9659 7.50288 28.6525 9.01103 29.7308C6.00525 29.2958 3.49798 27.4442 2.20228 24.9123Z" fill="#057B35"/>
<path d="M10.4435 10.8959C10.4435 10.8959 10.3489 11.4773 10.3425 11.5082C10.0186 13.1557 8.20337 14.8773 5.65403 14.966L5.04614 14.9866V18.2732H9.85034V31.0402C9.97865 31.0464 10.107 31.0505 10.2226 31.0526C10.2731 31.0526 10.3257 31.0526 10.3762 31.0526C10.4183 31.0526 10.4645 31.0526 10.5087 31.0526H11.1692H15.3318V10.8938H10.4477L10.4435 10.8959Z" fill="#1F3059"/>
<path d="M40.5896 10.8938H44.6892V27.6381H54.1861V31.0484H40.5896V10.8938Z" fill="#1F3059"/>
<path d="M113.404 10.8938H117.503V27.6381H127V31.0484H113.404V10.8938Z" fill="#1F3059"/>
<path d="M100.346 10.8938H104.586L111.708 31.0484H107.44L106.084 26.7639H98.7912L97.464 31.0484H93.3076L100.346 10.8938ZM99.7525 23.634H105.095L103.286 17.8278C102.948 16.7557 102.466 14.7268 102.466 14.7268H102.409C102.409 14.7268 101.9 16.7557 101.561 17.8278L99.7525 23.634Z" fill="#1F3059"/>
<path d="M76.3749 10.8938H85.4196C87.5966 10.8938 89.2646 11.4299 90.31 12.3598C91.4122 13.3453 91.9213 14.5577 91.9213 16.1371C91.9213 18.1948 90.6487 19.5206 88.7556 20.168V20.2526C90.9894 20.9 92.5144 22.7618 92.5144 25.2423C92.5144 27.1309 91.9212 28.4278 90.7328 29.4423C89.5738 30.4567 87.7922 31.0484 85.6447 31.0484H76.3728V10.8938H76.3749ZM84.9106 19.0113C86.6922 19.0113 87.9058 18.166 87.9058 16.5866C87.9058 15.0917 86.8036 14.2196 84.9947 14.2196H80.4724V19.0113H84.9106ZM80.4724 27.6649H85.1924C87.1717 27.6649 88.3581 26.566 88.3581 24.9309C88.3581 23.0134 86.9446 22.0278 85.0788 22.0278H80.4724V27.6649Z" fill="#1F3059"/>
<path d="M54.6658 21.0134C54.6658 14.9804 58.454 10.5 64.4172 10.5C70.3804 10.5 74.1413 14.9825 74.1413 21.0134C74.1413 27.0443 70.3825 31.5 64.4172 31.5C58.4519 31.5 54.6658 27.0464 54.6658 21.0134ZM69.9576 21.0134C69.9576 16.9825 68.1487 13.8526 64.4467 13.8526C60.7446 13.8526 58.8495 16.9825 58.8495 21.0134C58.8495 25.0443 60.7425 28.1454 64.4467 28.1454C68.1508 28.1454 69.9576 25.0155 69.9576 21.0134Z" fill="#1F3059"/>
<path d="M34.5127 28.3433H34.4559C33.0698 30.6546 31.1767 31.4711 28.7746 31.4711C25.7226 31.4711 23.3478 30.3722 21.6798 28.5392C20.0118 26.6794 19.0505 24.0856 19.0505 21.0423C19.0505 17.6876 20.2369 14.7557 22.3571 12.8113C23.9957 11.3165 26.1454 10.5 28.8588 10.5C33.9469 10.5 36.8581 13.2918 37.508 17.2381H33.4947C33.0425 15.2938 31.5448 13.8835 28.945 13.8835C25.1294 13.8835 23.2342 17.0402 23.2342 21.0423C23.2342 25.0443 25.4113 28.1742 28.8882 28.1742C32.0265 28.1742 34.09 25.834 34.09 23.6072V23.4938H29.229V20.3371H37.7373V31.0485H34.6558L34.5148 28.3433H34.5127Z" fill="#1F3059"/>
</g>
<defs>
<clipPath id="clip0_6565_16005">
<rect width="127" height="21" fill="white" transform="translate(0 10.5)"/>
</clipPath>
</defs>
</svg>
